# Blender v2.77 (sub 0) OBJ File: ''
# www.blender.org
mtllib flipper-block.mtl
o Cube.005
v -0.524685 1.318240 0.524685
v -0.524685 1.318240 -0.524685
v -0.910003 0.991438 -0.910003
v -0.910003 0.991438 0.910003
v 0.524685 1.318240 -0.524685
v 0.910003 0.991438 -0.910003
v 0.524685 1.318240 0.524685
v 0.910003 0.991438 0.910003
v 1.000000 -1.000000 -1.000000
v 1.000000 -1.000000 1.000000
v -1.000000 -1.000000 1.000000
v -1.000000 -1.000000 -1.000000
v 1.000000 1.000000 -0.999999
v -1.000000 1.000000 -1.000000
v -1.000000 1.000000 1.000000
v 0.999999 1.000000 1.000001
vn -0.6468 0.7626 0.0000
vn 0.0000 0.7626 -0.6468
vn 0.6468 0.7626 0.0000
vn 0.0000 0.7626 0.6468
vn 0.0000 -1.0000 -0.0000
vn 0.0000 1.0000 0.0000
vn 1.0000 0.0000 0.0000
vn -0.0000 -0.0000 1.0000
vn -1.0000 -0.0000 0.0000
vn 0.0000 0.0000 -1.0000
usemtl None
s 1
f 1//1 2//1 3//1 4//1
f 2//2 5//2 6//2 3//2
f 5//3 7//3 8//3 6//3
f 7//4 1//4 4//4 8//4
f 4//5 3//5 6//5 8//5
f 7//6 5//6 2//6 1//6
usemtl Material.002
f 9//5 10//5 11//5 12//5
f 13//6 14//6 15//6 16//6
f 9//7 13//7 16//7 10//7
f 10//8 16//8 15//8 11//8
f 11//9 15//9 14//9 12//9
f 13//10 9//10 12//10 14//10
