# Blender v2.77 (sub 0) OBJ File: ''
# www.blender.org
mtllib hole-exit.mtl
o Torus.001
v 0.000000 -0.950000 1.000000
v 0.000000 -0.800000 1.086603
v 0.000000 -0.800000 0.913397
v 0.160551 -0.936335 1.000000
v 0.135201 -0.788493 1.086603
v 0.135201 -0.788493 0.913397
v 0.316483 -0.895734 1.000000
v 0.266512 -0.754302 1.086603
v 0.266512 -0.754302 0.913397
v 0.463310 -0.829363 1.000000
v 0.390156 -0.698411 1.086603
v 0.390156 -0.698411 0.913397
v 0.596809 -0.739134 1.000000
v 0.502576 -0.622428 1.086603
v 0.502576 -0.622428 0.913398
v 0.713139 -0.627641 1.000000
v 0.600538 -0.528540 1.086603
v 0.600538 -0.528540 0.913398
v 0.808953 -0.498092 1.000000
v 0.681223 -0.419446 1.086603
v 0.681223 -0.419446 0.913398
v 0.881494 -0.354214 1.000000
v 0.742311 -0.298285 1.086603
v 0.742311 -0.298285 0.913398
v 0.928677 -0.200145 1.000000
v 0.782044 -0.168543 1.086603
v 0.782044 -0.168543 0.913398
v 0.949144 -0.040319 1.000000
v 0.799279 -0.033953 1.086603
v 0.799279 -0.033953 0.913398
v 0.942305 0.120667 1.000000
v 0.793520 0.101614 1.086603
v 0.793520 0.101614 0.913398
v 0.908358 0.278182 1.000000
v 0.764933 0.234258 1.086603
v 0.764933 0.234258 0.913398
v 0.848280 0.427693 1.000000
v 0.714341 0.360163 1.086603
v 0.714341 0.360163 0.913398
v 0.763797 0.564902 1.000000
v 0.643198 0.475707 1.086603
v 0.643198 0.475707 0.913398
v 0.657342 0.685858 1.000000
v 0.553551 0.577565 1.086603
v 0.553551 0.577565 0.913398
v 0.531976 0.787084 1.000000
v 0.447980 0.662808 1.086603
v 0.447980 0.662808 0.913397
v 0.391306 0.865667 1.000000
v 0.329521 0.728983 1.086603
v 0.329521 0.728983 0.913397
v 0.239379 0.919346 1.000000
v 0.201583 0.774186 1.086603
v 0.201583 0.774186 0.913397
v 0.080566 0.946578 1.000000
v 0.067845 0.797118 1.086603
v 0.067845 0.797118 0.913397
v -0.080566 0.946578 1.000000
v -0.067845 0.797118 1.086603
v -0.067845 0.797118 0.913397
v -0.239379 0.919346 1.000000
v -0.201582 0.774186 1.086603
v -0.201582 0.774186 0.913397
v -0.391306 0.865667 1.000000
v -0.329521 0.728983 1.086603
v -0.329521 0.728983 0.913397
v -0.531976 0.787084 1.000000
v -0.447980 0.662808 1.086602
v -0.447980 0.662808 0.913397
v -0.657342 0.685858 1.000000
v -0.553551 0.577565 1.086602
v -0.553551 0.577565 0.913397
v -0.763797 0.564901 1.000000
v -0.643198 0.475706 1.086602
v -0.643198 0.475706 0.913397
v -0.848280 0.427693 1.000000
v -0.714341 0.360163 1.086602
v -0.714341 0.360163 0.913397
v -0.908358 0.278182 1.000000
v -0.764933 0.234258 1.086602
v -0.764933 0.234258 0.913397
v -0.942305 0.120667 1.000000
v -0.793520 0.101614 1.086602
v -0.793520 0.101614 0.913397
v -0.949144 -0.040319 1.000000
v -0.799279 -0.033953 1.086602
v -0.799279 -0.033953 0.913397
v -0.928677 -0.200145 1.000000
v -0.782044 -0.168544 1.086602
v -0.782044 -0.168544 0.913397
v -0.881494 -0.354214 1.000000
v -0.742311 -0.298285 1.086602
v -0.742311 -0.298285 0.913397
v -0.808953 -0.498092 1.000000
v -0.681223 -0.419446 1.086602
v -0.681223 -0.419446 0.913397
v -0.713139 -0.627641 1.000000
v -0.600538 -0.528540 1.086602
v -0.600538 -0.528540 0.913397
v -0.596809 -0.739134 1.000000
v -0.502576 -0.622429 1.086602
v -0.502576 -0.622429 0.913397
v -0.463310 -0.829364 1.000000
v -0.390156 -0.698411 1.086602
v -0.390156 -0.698411 0.913397
v -0.316483 -0.895733 1.000000
v -0.266512 -0.754302 1.086602
v -0.266512 -0.754302 0.913397
v -0.160551 -0.936335 1.000000
v -0.135201 -0.788493 1.086603
v -0.135201 -0.788493 0.913397
vn 0.0425 -0.4995 0.8652
vn -0.0848 0.9964 0.0000
vn 0.0425 -0.4995 -0.8652
vn 0.1263 -0.4852 0.8652
vn -0.2520 0.9677 0.0000
vn 0.1263 -0.4852 -0.8652
vn 0.2065 -0.4568 0.8652
vn -0.4119 0.9112 0.0000
vn 0.2065 -0.4568 -0.8652
vn 0.2807 -0.4154 0.8652
vn -0.5600 0.8285 0.0000
vn 0.2807 -0.4154 -0.8652
vn 0.3469 -0.3620 0.8652
vn -0.6919 0.7220 0.0000
vn 0.3469 -0.3620 -0.8652
vn 0.4031 -0.2981 0.8652
vn -0.8040 0.5946 0.0000
vn 0.4031 -0.2981 -0.8652
vn 0.4477 -0.2257 0.8652
vn -0.8929 0.4502 0.0000
vn 0.4477 -0.2257 -0.8652
vn 0.4794 -0.1468 0.8652
vn -0.9562 0.2928 0.0000
vn 0.4794 -0.1468 -0.8652
vn 0.4973 -0.0637 0.8652
vn -0.9919 0.1270 0.0000
vn 0.4973 -0.0637 -0.8652
vn 0.5009 0.0213 0.8652
vn -0.9991 -0.0424 0.0000
vn 0.5009 0.0213 -0.8652
vn 0.4901 0.1056 0.8652
vn -0.9776 -0.2107 0.0000
vn 0.4901 0.1056 -0.8652
vn 0.4652 0.1869 0.8652
vn -0.9279 -0.3729 0.0000
vn 0.4652 0.1869 -0.8652
vn 0.4269 0.2629 0.8652
vn -0.8515 -0.5243 0.0000
vn 0.4269 0.2629 -0.8652
vn 0.3764 0.3312 0.8652
vn -0.7507 -0.6607 0.0000
vn 0.3764 0.3312 -0.8652
vn 0.3150 0.3901 0.8652
vn -0.6282 -0.7780 0.0000
vn 0.3150 0.3901 -0.8652
vn 0.2445 0.4377 0.8652
vn -0.4877 -0.8730 0.0000
vn 0.2445 0.4377 -0.8652
vn 0.1670 0.4727 0.8652
vn -0.3331 -0.9429 0.0000
vn 0.1670 0.4727 -0.8652
vn 0.0847 0.4941 0.8652
vn -0.1690 -0.9856 0.0000
vn 0.0847 0.4941 -0.8652
vn 0.0000 0.5014 0.8652
vn 0.0000 -1.0000 0.0000
vn 0.0000 0.5014 -0.8652
vn -0.0847 0.4941 0.8652
vn 0.1690 -0.9856 0.0000
vn -0.0847 0.4941 -0.8652
vn -0.1670 0.4727 0.8652
vn 0.3331 -0.9429 0.0000
vn -0.1670 0.4727 -0.8652
vn -0.2445 0.4377 0.8652
vn 0.4877 -0.8730 0.0000
vn -0.2445 0.4377 -0.8652
vn -0.3150 0.3901 0.8652
vn 0.6282 -0.7780 0.0000
vn -0.3150 0.3901 -0.8652
vn -0.3764 0.3312 0.8652
vn 0.7507 -0.6607 0.0000
vn -0.3764 0.3312 -0.8652
vn -0.4269 0.2629 0.8652
vn 0.8515 -0.5243 0.0000
vn -0.4269 0.2629 -0.8652
vn -0.4652 0.1869 0.8652
vn 0.9279 -0.3729 0.0000
vn -0.4652 0.1869 -0.8652
vn -0.4901 0.1056 0.8652
vn 0.9776 -0.2107 0.0000
vn -0.4901 0.1056 -0.8652
vn -0.5009 0.0213 0.8652
vn 0.9991 -0.0424 0.0000
vn -0.5009 0.0213 -0.8652
vn -0.4973 -0.0637 0.8652
vn 0.9919 0.1270 0.0000
vn -0.4973 -0.0637 -0.8652
vn -0.4794 -0.1468 0.8652
vn 0.9562 0.2928 0.0000
vn -0.4794 -0.1468 -0.8652
vn -0.4477 -0.2257 0.8652
vn 0.8929 0.4502 0.0000
vn -0.4477 -0.2257 -0.8652
vn -0.4031 -0.2981 0.8652
vn 0.8040 0.5946 0.0000
vn -0.4031 -0.2981 -0.8652
vn -0.3469 -0.3620 0.8652
vn 0.6919 0.7220 0.0000
vn -0.3469 -0.3620 -0.8652
vn -0.2807 -0.4154 0.8652
vn 0.5600 0.8285 0.0000
vn -0.2807 -0.4154 -0.8652
vn -0.2065 -0.4568 0.8652
vn 0.4119 0.9112 0.0000
vn -0.2065 -0.4568 -0.8652
vn -0.1263 -0.4852 0.8652
vn 0.2520 0.9677 0.0000
vn -0.1263 -0.4852 -0.8652
vn -0.0425 -0.4995 0.8652
vn 0.0848 0.9964 0.0000
vn -0.0425 -0.4995 -0.8652
usemtl None
s off
f 1//1 4//1 5//1 2//1
f 2//2 5//2 6//2 3//2
f 1//3 3//3 6//3 4//3
f 4//4 7//4 8//4 5//4
f 5//5 8//5 9//5 6//5
f 6//6 9//6 7//6 4//6
f 7//7 10//7 11//7 8//7
f 8//8 11//8 12//8 9//8
f 9//9 12//9 10//9 7//9
f 10//10 13//10 14//10 11//10
f 11//11 14//11 15//11 12//11
f 12//12 15//12 13//12 10//12
f 13//13 16//13 17//13 14//13
f 14//14 17//14 18//14 15//14
f 15//15 18//15 16//15 13//15
f 16//16 19//16 20//16 17//16
f 17//17 20//17 21//17 18//17
f 18//18 21//18 19//18 16//18
f 19//19 22//19 23//19 20//19
f 20//20 23//20 24//20 21//20
f 21//21 24//21 22//21 19//21
f 22//22 25//22 26//22 23//22
f 23//23 26//23 27//23 24//23
f 24//24 27//24 25//24 22//24
f 25//25 28//25 29//25 26//25
f 26//26 29//26 30//26 27//26
f 27//27 30//27 28//27 25//27
f 28//28 31//28 32//28 29//28
f 29//29 32//29 33//29 30//29
f 30//30 33//30 31//30 28//30
f 31//31 34//31 35//31 32//31
f 32//32 35//32 36//32 33//32
f 33//33 36//33 34//33 31//33
f 34//34 37//34 38//34 35//34
f 35//35 38//35 39//35 36//35
f 36//36 39//36 37//36 34//36
f 37//37 40//37 41//37 38//37
f 38//38 41//38 42//38 39//38
f 39//39 42//39 40//39 37//39
f 40//40 43//40 44//40 41//40
f 41//41 44//41 45//41 42//41
f 42//42 45//42 43//42 40//42
f 43//43 46//43 47//43 44//43
f 44//44 47//44 48//44 45//44
f 45//45 48//45 46//45 43//45
f 46//46 49//46 50//46 47//46
f 47//47 50//47 51//47 48//47
f 48//48 51//48 49//48 46//48
f 49//49 52//49 53//49 50//49
f 50//50 53//50 54//50 51//50
f 51//51 54//51 52//51 49//51
f 52//52 55//52 56//52 53//52
f 53//53 56//53 57//53 54//53
f 54//54 57//54 55//54 52//54
f 55//55 58//55 59//55 56//55
f 56//56 59//56 60//56 57//56
f 57//57 60//57 58//57 55//57
f 58//58 61//58 62//58 59//58
f 59//59 62//59 63//59 60//59
f 60//60 63//60 61//60 58//60
f 61//61 64//61 65//61 62//61
f 62//62 65//62 66//62 63//62
f 63//63 66//63 64//63 61//63
f 64//64 67//64 68//64 65//64
f 65//65 68//65 69//65 66//65
f 66//66 69//66 67//66 64//66
f 67//67 70//67 71//67 68//67
f 68//68 71//68 72//68 69//68
f 69//69 72//69 70//69 67//69
f 70//70 73//70 74//70 71//70
f 71//71 74//71 75//71 72//71
f 72//72 75//72 73//72 70//72
f 73//73 76//73 77//73 74//73
f 74//74 77//74 78//74 75//74
f 75//75 78//75 76//75 73//75
f 76//76 79//76 80//76 77//76
f 77//77 80//77 81//77 78//77
f 78//78 81//78 79//78 76//78
f 79//79 82//79 83//79 80//79
f 80//80 83//80 84//80 81//80
f 81//81 84//81 82//81 79//81
f 82//82 85//82 86//82 83//82
f 83//83 86//83 87//83 84//83
f 84//84 87//84 85//84 82//84
f 85//85 88//85 89//85 86//85
f 86//86 89//86 90//86 87//86
f 87//87 90//87 88//87 85//87
f 88//88 91//88 92//88 89//88
f 89//89 92//89 93//89 90//89
f 90//90 93//90 91//90 88//90
f 91//91 94//91 95//91 92//91
f 92//92 95//92 96//92 93//92
f 93//93 96//93 94//93 91//93
f 94//94 97//94 98//94 95//94
f 95//95 98//95 99//95 96//95
f 96//96 99//96 97//96 94//96
f 97//97 100//97 101//97 98//97
f 98//98 101//98 102//98 99//98
f 99//99 102//99 100//99 97//99
f 100//100 103//100 104//100 101//100
f 101//101 104//101 105//101 102//101
f 102//102 105//102 103//102 100//102
f 103//103 106//103 107//103 104//103
f 104//104 107//104 108//104 105//104
f 105//105 108//105 106//105 103//105
f 106//106 109//106 110//106 107//106
f 107//107 110//107 111//107 108//107
f 108//108 111//108 109//108 106//108
f 109//109 1//109 2//109 110//109
f 110//110 2//110 3//110 111//110
f 111//111 3//111 1//111 109//111
