# Blender v2.77 (sub 0) OBJ File: ''
# www.blender.org
mtllib cube-half-diagonal.mtl
o Cube.001
v -1.000000 -0.999750 -1.000000
v 1.000000 -1.000000 -1.000000
v 1.000000 -1.000000 1.000000
v -1.000000 -0.999501 1.000000
v 1.000000 1.000000 1.000000
v 1.000001 1.000000 -0.999999
vn -0.0002 -1.0000 0.0001
vn -0.7070 0.7072 -0.0000
vn 0.0000 0.0000 -1.0000
vn 1.0000 -0.0000 0.0000
vn 0.0000 -0.0000 1.0000
usemtl Material.001
s 1
f 1//1 2//1 3//1 4//1
f 1//2 4//2 5//2 6//2
f 1//3 6//3 2//3
f 2//4 6//4 5//4 3//4
f 3//5 5//5 4//5
