# Blender v2.77 (sub 0) OBJ File: ''
# www.blender.org
mtllib bumper.mtl
o Torus
v 0.000000 -0.637079 0.367818
v -0.000000 -0.637079 -0.367818
v -0.450483 -0.450483 0.367818
v -0.450483 -0.450483 -0.367818
v -0.637080 0.000000 0.367818
v -0.637079 0.000000 -0.367818
v -0.450483 0.450483 0.367818
v -0.450483 0.450483 -0.367818
v -0.000000 0.637080 0.367818
v -0.000000 0.637079 -0.367818
v 0.450483 0.450483 0.367818
v 0.450483 0.450483 -0.367818
v -0.000000 0.000000 -0.735636
v 0.637079 0.000000 0.367818
v 0.637079 0.000000 -0.367818
v 0.000000 -0.000000 0.735636
v 0.450483 -0.450483 0.367818
v 0.450483 -0.450483 -0.367818
v 0.000000 0.950848 0.000000
v 0.000000 0.819444 0.180862
v 0.000000 0.606828 0.111779
v -0.000000 0.606828 -0.111779
v -0.000000 0.819444 -0.180862
v -0.672351 0.672351 0.000000
v -0.579435 0.579435 0.180862
v -0.429092 0.429092 0.111779
v -0.429092 0.429092 -0.111779
v -0.579435 0.579435 -0.180862
v -0.950848 0.000000 0.000000
v -0.819444 0.000000 0.180862
v -0.606828 0.000000 0.111779
v -0.606828 0.000000 -0.111779
v -0.819444 0.000000 -0.180862
v -0.672351 -0.672351 -0.000000
v -0.579435 -0.579435 0.180862
v -0.429092 -0.429092 0.111779
v -0.429092 -0.429092 -0.111779
v -0.579435 -0.579435 -0.180862
v -0.000000 -0.950848 -0.000000
v -0.000000 -0.819444 0.180862
v -0.000000 -0.606828 0.111779
v -0.000000 -0.606828 -0.111779
v -0.000000 -0.819444 -0.180862
v 0.672351 -0.672351 -0.000000
v 0.579435 -0.579435 0.180862
v 0.429092 -0.429092 0.111779
v 0.429092 -0.429092 -0.111779
v 0.579435 -0.579435 -0.180862
v 0.950848 0.000000 -0.000000
v 0.819444 0.000000 0.180862
v 0.606828 0.000000 0.111779
v 0.606828 0.000000 -0.111779
v 0.819444 0.000000 -0.180862
v 0.672352 0.672351 -0.000000
v 0.579435 0.579434 0.180862
v 0.429093 0.429092 0.111779
v 0.429093 0.429092 -0.111779
v 0.579435 0.579434 -0.180862
vn -0.2028 -0.4896 -0.8480
vn -0.3827 -0.9239 -0.0000
vn -0.2028 -0.4896 0.8480
vn -0.4896 -0.2028 -0.8480
vn -0.9239 -0.3827 -0.0000
vn -0.4896 -0.2028 0.8480
vn -0.4896 0.2028 -0.8480
vn -0.9239 0.3827 -0.0000
vn -0.4896 0.2028 0.8480
vn -0.2028 0.4896 -0.8480
vn -0.3827 0.9239 -0.0000
vn -0.2028 0.4896 0.8480
vn 0.2028 0.4896 -0.8480
vn 0.3827 0.9239 -0.0000
vn 0.2028 0.4896 0.8480
vn 0.4896 0.2028 -0.8480
vn 0.9239 0.3827 -0.0000
vn 0.4896 0.2028 0.8480
vn 0.4896 -0.2028 -0.8480
vn 0.9239 -0.3827 -0.0000
vn 0.4896 -0.2028 0.8480
vn 0.2028 -0.4896 -0.8480
vn 0.3827 -0.9239 0.0000
vn 0.2028 -0.4896 0.8480
vn -0.3177 0.7671 0.5573
vn 0.1270 -0.3065 0.9434
vn 0.1270 -0.3065 -0.9434
vn -0.3177 0.7671 -0.5573
vn -0.7671 0.3177 0.5573
vn 0.3065 -0.1270 0.9434
vn 0.3065 -0.1270 -0.9434
vn -0.7671 0.3177 -0.5573
vn -0.7671 -0.3177 0.5573
vn 0.3065 0.1270 0.9434
vn 0.3065 0.1270 -0.9434
vn -0.7671 -0.3177 -0.5573
vn -0.3177 -0.7671 0.5573
vn 0.1270 0.3065 0.9434
vn 0.1270 0.3065 -0.9434
vn -0.3177 -0.7671 -0.5573
vn 0.3177 -0.7671 0.5573
vn -0.1270 0.3065 0.9434
vn -0.1270 0.3065 -0.9434
vn 0.3177 -0.7671 -0.5573
vn 0.7671 -0.3177 0.5573
vn -0.3065 0.1270 0.9434
vn -0.3065 0.1270 -0.9434
vn 0.7671 -0.3177 -0.5573
vn 0.7671 0.3177 0.5573
vn -0.3065 -0.1270 0.9434
vn -0.3065 -0.1270 -0.9434
vn 0.7671 0.3177 -0.5573
vn 0.3177 0.7671 0.5573
vn -0.1270 -0.3065 0.9434
vn -0.1270 -0.3065 -0.9434
vn 0.3177 0.7671 -0.5573
usemtl None
s off
f 13//1 2//1 4//1
f 2//2 1//2 3//2 4//2
f 1//3 16//3 3//3
f 13//4 4//4 6//4
f 4//5 3//5 5//5 6//5
f 3//6 16//6 5//6
f 13//7 6//7 8//7
f 6//8 5//8 7//8 8//8
f 5//9 16//9 7//9
f 13//10 8//10 10//10
f 8//11 7//11 9//11 10//11
f 7//12 16//12 9//12
f 13//13 10//13 12//13
f 10//14 9//14 11//14 12//14
f 9//15 16//15 11//15
f 13//16 12//16 15//16
f 12//17 11//17 14//17 15//17
f 11//18 16//18 14//18
f 13//19 15//19 18//19
f 15//20 14//20 17//20 18//20
f 14//21 16//21 17//21
f 13//22 18//22 2//22
f 18//23 17//23 1//23 2//23
f 17//24 16//24 1//24
f 19//25 24//25 25//25 20//25
f 20//26 25//26 26//26 21//26
f 21//23 26//23 27//23 22//23
f 22//27 27//27 28//27 23//27
f 19//28 23//28 28//28 24//28
f 24//29 29//29 30//29 25//29
f 25//30 30//30 31//30 26//30
f 26//20 31//20 32//20 27//20
f 27//31 32//31 33//31 28//31
f 28//32 33//32 29//32 24//32
f 29//33 34//33 35//33 30//33
f 30//34 35//34 36//34 31//34
f 31//17 36//17 37//17 32//17
f 32//35 37//35 38//35 33//35
f 33//36 38//36 34//36 29//36
f 34//37 39//37 40//37 35//37
f 35//38 40//38 41//38 36//38
f 36//14 41//14 42//14 37//14
f 37//39 42//39 43//39 38//39
f 38//40 43//40 39//40 34//40
f 39//41 44//41 45//41 40//41
f 40//42 45//42 46//42 41//42
f 41//11 46//11 47//11 42//11
f 42//43 47//43 48//43 43//43
f 43//44 48//44 44//44 39//44
f 44//45 49//45 50//45 45//45
f 45//46 50//46 51//46 46//46
f 46//8 51//8 52//8 47//8
f 47//47 52//47 53//47 48//47
f 48//48 53//48 49//48 44//48
f 49//49 54//49 55//49 50//49
f 50//50 55//50 56//50 51//50
f 51//5 56//5 57//5 52//5
f 52//51 57//51 58//51 53//51
f 53//52 58//52 54//52 49//52
f 54//53 19//53 20//53 55//53
f 55//54 20//54 21//54 56//54
f 56//2 21//2 22//2 57//2
f 57//55 22//55 23//55 58//55
f 58//56 23//56 19//56 54//56
